<mxfile host="app.diagrams.net" agent="Mozilla/5.0 (Windows NT 10.0; Win64; x64) AppleWebKit/537.36 (KHTML, like Gecko) Chrome/140.0.0.0 Safari/537.36" version="28.2.3">
  <diagram name="Page-1" id="EmYalg4P_p9dDN4TnpJ-">
    <mxGraphModel dx="1892" dy="567" grid="1" gridSize="10" guides="1" tooltips="1" connect="1" arrows="1" fold="1" page="1" pageScale="1" pageWidth="850" pageHeight="1100" math="0" shadow="0">
      <root>
        <mxCell id="0" />
        <mxCell id="1" parent="0" />
        <mxCell id="z_xtqbVC0w5QypKN6tBm-1" value="Role" style="rounded=0;whiteSpace=wrap;html=1;" parent="1" vertex="1">
          <mxGeometry x="70" y="90" width="120" height="60" as="geometry" />
        </mxCell>
        <mxCell id="z_xtqbVC0w5QypKN6tBm-2" value="" style="endArrow=none;html=1;rounded=0;exitX=0.5;exitY=0;exitDx=0;exitDy=0;" parent="1" source="z_xtqbVC0w5QypKN6tBm-3" edge="1">
          <mxGeometry width="50" height="50" relative="1" as="geometry">
            <mxPoint x="30" y="200" as="sourcePoint" />
            <mxPoint x="70" y="150" as="targetPoint" />
          </mxGeometry>
        </mxCell>
        <mxCell id="z_xtqbVC0w5QypKN6tBm-3" value="RoleID" style="ellipse;whiteSpace=wrap;html=1;" parent="1" vertex="1">
          <mxGeometry x="-40" y="190" width="100" height="70" as="geometry" />
        </mxCell>
        <mxCell id="z_xtqbVC0w5QypKN6tBm-4" value="Role_Nome" style="ellipse;whiteSpace=wrap;html=1;" parent="1" vertex="1">
          <mxGeometry x="190" y="190" width="100" height="70" as="geometry" />
        </mxCell>
        <mxCell id="z_xtqbVC0w5QypKN6tBm-5" value="" style="endArrow=none;html=1;rounded=0;entryX=1;entryY=1;entryDx=0;entryDy=0;" parent="1" target="z_xtqbVC0w5QypKN6tBm-1" edge="1">
          <mxGeometry width="50" height="50" relative="1" as="geometry">
            <mxPoint x="240" y="190" as="sourcePoint" />
            <mxPoint x="450" y="270" as="targetPoint" />
          </mxGeometry>
        </mxCell>
        <mxCell id="z_xtqbVC0w5QypKN6tBm-6" value="Usuário" style="rounded=0;whiteSpace=wrap;html=1;" parent="1" vertex="1">
          <mxGeometry x="450" y="90" width="120" height="60" as="geometry" />
        </mxCell>
        <mxCell id="z_xtqbVC0w5QypKN6tBm-7" value="UserID" style="ellipse;whiteSpace=wrap;html=1;" parent="1" vertex="1">
          <mxGeometry x="325" y="190" width="100" height="70" as="geometry" />
        </mxCell>
        <mxCell id="z_xtqbVC0w5QypKN6tBm-8" value="" style="endArrow=none;html=1;rounded=0;entryX=0;entryY=1;entryDx=0;entryDy=0;exitX=0.5;exitY=0;exitDx=0;exitDy=0;" parent="1" source="z_xtqbVC0w5QypKN6tBm-7" target="z_xtqbVC0w5QypKN6tBm-6" edge="1">
          <mxGeometry width="50" height="50" relative="1" as="geometry">
            <mxPoint x="400" y="320" as="sourcePoint" />
            <mxPoint x="450" y="270" as="targetPoint" />
          </mxGeometry>
        </mxCell>
        <mxCell id="z_xtqbVC0w5QypKN6tBm-9" value="" style="endArrow=none;html=1;rounded=0;entryX=1;entryY=1;entryDx=0;entryDy=0;exitX=0.5;exitY=0;exitDx=0;exitDy=0;" parent="1" source="z_xtqbVC0w5QypKN6tBm-10" target="z_xtqbVC0w5QypKN6tBm-6" edge="1">
          <mxGeometry width="50" height="50" relative="1" as="geometry">
            <mxPoint x="620" y="210" as="sourcePoint" />
            <mxPoint x="450" y="270" as="targetPoint" />
          </mxGeometry>
        </mxCell>
        <mxCell id="z_xtqbVC0w5QypKN6tBm-10" value="Username" style="ellipse;whiteSpace=wrap;html=1;" parent="1" vertex="1">
          <mxGeometry x="580" y="170" width="100" height="70" as="geometry" />
        </mxCell>
        <mxCell id="z_xtqbVC0w5QypKN6tBm-11" value="" style="endArrow=none;html=1;rounded=0;entryX=0.5;entryY=1;entryDx=0;entryDy=0;exitX=0.5;exitY=0;exitDx=0;exitDy=0;" parent="1" source="z_xtqbVC0w5QypKN6tBm-12" target="z_xtqbVC0w5QypKN6tBm-6" edge="1">
          <mxGeometry width="50" height="50" relative="1" as="geometry">
            <mxPoint x="510" y="250" as="sourcePoint" />
            <mxPoint x="450" y="270" as="targetPoint" />
          </mxGeometry>
        </mxCell>
        <mxCell id="z_xtqbVC0w5QypKN6tBm-12" value="PasswordHash" style="ellipse;whiteSpace=wrap;html=1;" parent="1" vertex="1">
          <mxGeometry x="410" y="250" width="100" height="70" as="geometry" />
        </mxCell>
        <mxCell id="z_xtqbVC0w5QypKN6tBm-13" value="RoleID" style="ellipse;whiteSpace=wrap;html=1;" parent="1" vertex="1">
          <mxGeometry x="530" y="250" width="100" height="70" as="geometry" />
        </mxCell>
        <mxCell id="z_xtqbVC0w5QypKN6tBm-14" value="" style="endArrow=none;html=1;rounded=0;entryX=0.5;entryY=1;entryDx=0;entryDy=0;exitX=0.5;exitY=0;exitDx=0;exitDy=0;" parent="1" source="z_xtqbVC0w5QypKN6tBm-13" target="z_xtqbVC0w5QypKN6tBm-6" edge="1">
          <mxGeometry width="50" height="50" relative="1" as="geometry">
            <mxPoint x="420" y="340" as="sourcePoint" />
            <mxPoint x="470" y="290" as="targetPoint" />
          </mxGeometry>
        </mxCell>
        <mxCell id="z_xtqbVC0w5QypKN6tBm-15" value="" style="endArrow=classic;html=1;rounded=0;entryX=1;entryY=0.5;entryDx=0;entryDy=0;exitX=0;exitY=0.5;exitDx=0;exitDy=0;" parent="1" source="z_xtqbVC0w5QypKN6tBm-6" target="z_xtqbVC0w5QypKN6tBm-1" edge="1">
          <mxGeometry width="50" height="50" relative="1" as="geometry">
            <mxPoint x="420" y="340" as="sourcePoint" />
            <mxPoint x="470" y="290" as="targetPoint" />
          </mxGeometry>
        </mxCell>
        <mxCell id="z_xtqbVC0w5QypKN6tBm-16" value="Equipamento" style="rounded=0;whiteSpace=wrap;html=1;" parent="1" vertex="1">
          <mxGeometry x="830" y="90" width="120" height="60" as="geometry" />
        </mxCell>
        <mxCell id="z_xtqbVC0w5QypKN6tBm-17" value="" style="endArrow=none;html=1;rounded=0;entryX=0;entryY=0.75;entryDx=0;entryDy=0;exitX=0.5;exitY=0;exitDx=0;exitDy=0;" parent="1" source="z_xtqbVC0w5QypKN6tBm-18" target="z_xtqbVC0w5QypKN6tBm-16" edge="1">
          <mxGeometry width="50" height="50" relative="1" as="geometry">
            <mxPoint x="790" y="180" as="sourcePoint" />
            <mxPoint x="1050" y="250" as="targetPoint" />
            <Array as="points" />
          </mxGeometry>
        </mxCell>
        <mxCell id="z_xtqbVC0w5QypKN6tBm-18" value="EquipamentoID" style="ellipse;whiteSpace=wrap;html=1;" parent="1" vertex="1">
          <mxGeometry x="700" y="170" width="100" height="70" as="geometry" />
        </mxCell>
        <mxCell id="z_xtqbVC0w5QypKN6tBm-19" value="Equipamento_&lt;div&gt;Nome&lt;/div&gt;" style="ellipse;whiteSpace=wrap;html=1;" parent="1" vertex="1">
          <mxGeometry x="760" y="240" width="100" height="70" as="geometry" />
        </mxCell>
        <mxCell id="z_xtqbVC0w5QypKN6tBm-20" value="" style="endArrow=none;html=1;rounded=0;entryX=0.25;entryY=1;entryDx=0;entryDy=0;exitX=0.5;exitY=0;exitDx=0;exitDy=0;" parent="1" source="z_xtqbVC0w5QypKN6tBm-19" target="z_xtqbVC0w5QypKN6tBm-16" edge="1">
          <mxGeometry width="50" height="50" relative="1" as="geometry">
            <mxPoint x="1030" y="320" as="sourcePoint" />
            <mxPoint x="1080" y="270" as="targetPoint" />
          </mxGeometry>
        </mxCell>
        <mxCell id="z_xtqbVC0w5QypKN6tBm-21" value="Equipamento_&lt;div&gt;Descrição&lt;/div&gt;" style="ellipse;whiteSpace=wrap;html=1;" parent="1" vertex="1">
          <mxGeometry x="940" y="230" width="100" height="70" as="geometry" />
        </mxCell>
        <mxCell id="z_xtqbVC0w5QypKN6tBm-22" value="" style="endArrow=none;html=1;rounded=0;exitX=0.5;exitY=0;exitDx=0;exitDy=0;entryX=0.75;entryY=1;entryDx=0;entryDy=0;" parent="1" source="z_xtqbVC0w5QypKN6tBm-21" target="z_xtqbVC0w5QypKN6tBm-16" edge="1">
          <mxGeometry width="50" height="50" relative="1" as="geometry">
            <mxPoint x="1030" y="320" as="sourcePoint" />
            <mxPoint x="940" y="160" as="targetPoint" />
          </mxGeometry>
        </mxCell>
        <mxCell id="z_xtqbVC0w5QypKN6tBm-23" value="Status" style="ellipse;whiteSpace=wrap;html=1;" parent="1" vertex="1">
          <mxGeometry x="1010" y="160" width="100" height="70" as="geometry" />
        </mxCell>
        <mxCell id="z_xtqbVC0w5QypKN6tBm-24" value="" style="endArrow=none;html=1;rounded=0;entryX=1;entryY=0.75;entryDx=0;entryDy=0;exitX=0;exitY=0;exitDx=0;exitDy=0;" parent="1" source="z_xtqbVC0w5QypKN6tBm-23" target="z_xtqbVC0w5QypKN6tBm-16" edge="1">
          <mxGeometry width="50" height="50" relative="1" as="geometry">
            <mxPoint x="1030" y="320" as="sourcePoint" />
            <mxPoint x="1080" y="270" as="targetPoint" />
          </mxGeometry>
        </mxCell>
        <mxCell id="z_xtqbVC0w5QypKN6tBm-25" value="&lt;div&gt;Data_criação&lt;/div&gt;" style="ellipse;whiteSpace=wrap;html=1;" parent="1" vertex="1">
          <mxGeometry x="840" y="180" width="100" height="70" as="geometry" />
        </mxCell>
        <mxCell id="z_xtqbVC0w5QypKN6tBm-26" value="" style="endArrow=none;html=1;rounded=0;entryX=0.5;entryY=1;entryDx=0;entryDy=0;exitX=0.5;exitY=0;exitDx=0;exitDy=0;" parent="1" source="z_xtqbVC0w5QypKN6tBm-25" target="z_xtqbVC0w5QypKN6tBm-16" edge="1">
          <mxGeometry width="50" height="50" relative="1" as="geometry">
            <mxPoint x="660" y="320" as="sourcePoint" />
            <mxPoint x="710" y="270" as="targetPoint" />
          </mxGeometry>
        </mxCell>
        <mxCell id="z_xtqbVC0w5QypKN6tBm-27" value="Comentário" style="rounded=0;whiteSpace=wrap;html=1;" parent="1" vertex="1">
          <mxGeometry x="1230" y="90" width="120" height="60" as="geometry" />
        </mxCell>
        <mxCell id="z_xtqbVC0w5QypKN6tBm-28" value="" style="endArrow=classic;html=1;rounded=0;exitX=1;exitY=0.5;exitDx=0;exitDy=0;entryX=0;entryY=0.5;entryDx=0;entryDy=0;" parent="1" source="z_xtqbVC0w5QypKN6tBm-16" target="z_xtqbVC0w5QypKN6tBm-27" edge="1">
          <mxGeometry width="50" height="50" relative="1" as="geometry">
            <mxPoint x="1320" y="320" as="sourcePoint" />
            <mxPoint x="1370" y="270" as="targetPoint" />
          </mxGeometry>
        </mxCell>
        <mxCell id="z_xtqbVC0w5QypKN6tBm-29" value="ComentárioID" style="ellipse;whiteSpace=wrap;html=1;" parent="1" vertex="1">
          <mxGeometry x="1130" y="160" width="100" height="70" as="geometry" />
        </mxCell>
        <mxCell id="z_xtqbVC0w5QypKN6tBm-30" value="" style="endArrow=none;html=1;rounded=0;entryX=0;entryY=1;entryDx=0;entryDy=0;exitX=1;exitY=0;exitDx=0;exitDy=0;" parent="1" source="z_xtqbVC0w5QypKN6tBm-29" target="z_xtqbVC0w5QypKN6tBm-27" edge="1">
          <mxGeometry width="50" height="50" relative="1" as="geometry">
            <mxPoint x="1430" y="390" as="sourcePoint" />
            <mxPoint x="1480" y="340" as="targetPoint" />
          </mxGeometry>
        </mxCell>
        <mxCell id="z_xtqbVC0w5QypKN6tBm-31" value="Conteúdo" style="ellipse;whiteSpace=wrap;html=1;" parent="1" vertex="1">
          <mxGeometry x="1175" y="230" width="100" height="70" as="geometry" />
        </mxCell>
        <mxCell id="z_xtqbVC0w5QypKN6tBm-32" value="" style="endArrow=none;html=1;rounded=0;entryX=0.25;entryY=1;entryDx=0;entryDy=0;exitX=0.5;exitY=0;exitDx=0;exitDy=0;" parent="1" source="z_xtqbVC0w5QypKN6tBm-31" target="z_xtqbVC0w5QypKN6tBm-27" edge="1">
          <mxGeometry width="50" height="50" relative="1" as="geometry">
            <mxPoint x="1430" y="390" as="sourcePoint" />
            <mxPoint x="1480" y="340" as="targetPoint" />
          </mxGeometry>
        </mxCell>
        <mxCell id="z_xtqbVC0w5QypKN6tBm-33" value="DataCriação" style="ellipse;whiteSpace=wrap;html=1;" parent="1" vertex="1">
          <mxGeometry x="1240" y="300" width="100" height="70" as="geometry" />
        </mxCell>
        <mxCell id="z_xtqbVC0w5QypKN6tBm-34" value="" style="endArrow=none;html=1;rounded=0;entryX=0.5;entryY=1;entryDx=0;entryDy=0;exitX=0.5;exitY=0;exitDx=0;exitDy=0;" parent="1" source="z_xtqbVC0w5QypKN6tBm-33" target="z_xtqbVC0w5QypKN6tBm-27" edge="1">
          <mxGeometry width="50" height="50" relative="1" as="geometry">
            <mxPoint x="1430" y="390" as="sourcePoint" />
            <mxPoint x="1480" y="340" as="targetPoint" />
          </mxGeometry>
        </mxCell>
        <mxCell id="z_xtqbVC0w5QypKN6tBm-35" value="EquipamentoID" style="ellipse;whiteSpace=wrap;html=1;" parent="1" vertex="1">
          <mxGeometry x="1300" y="230" width="100" height="70" as="geometry" />
        </mxCell>
        <mxCell id="z_xtqbVC0w5QypKN6tBm-36" value="" style="endArrow=none;html=1;rounded=0;entryX=0.75;entryY=1;entryDx=0;entryDy=0;exitX=0.5;exitY=0;exitDx=0;exitDy=0;" parent="1" source="z_xtqbVC0w5QypKN6tBm-35" target="z_xtqbVC0w5QypKN6tBm-27" edge="1">
          <mxGeometry width="50" height="50" relative="1" as="geometry">
            <mxPoint x="1430" y="390" as="sourcePoint" />
            <mxPoint x="1480" y="340" as="targetPoint" />
          </mxGeometry>
        </mxCell>
        <mxCell id="z_xtqbVC0w5QypKN6tBm-37" value="UserID" style="ellipse;whiteSpace=wrap;html=1;" parent="1" vertex="1">
          <mxGeometry x="1360" y="160" width="100" height="70" as="geometry" />
        </mxCell>
        <mxCell id="z_xtqbVC0w5QypKN6tBm-38" value="" style="endArrow=none;html=1;rounded=0;entryX=1;entryY=1;entryDx=0;entryDy=0;exitX=0;exitY=0;exitDx=0;exitDy=0;" parent="1" source="z_xtqbVC0w5QypKN6tBm-37" target="z_xtqbVC0w5QypKN6tBm-27" edge="1">
          <mxGeometry width="50" height="50" relative="1" as="geometry">
            <mxPoint x="1360" y="390" as="sourcePoint" />
            <mxPoint x="1410" y="340" as="targetPoint" />
          </mxGeometry>
        </mxCell>
        <mxCell id="1EAoDEHy4wld-5IjoN8q-2" value="" style="endArrow=classic;html=1;rounded=0;exitX=0.5;exitY=0;exitDx=0;exitDy=0;entryX=0.5;entryY=0;entryDx=0;entryDy=0;" edge="1" parent="1" source="z_xtqbVC0w5QypKN6tBm-6" target="z_xtqbVC0w5QypKN6tBm-27">
          <mxGeometry width="50" height="50" relative="1" as="geometry">
            <mxPoint x="940" y="280" as="sourcePoint" />
            <mxPoint x="1290" y="40" as="targetPoint" />
            <Array as="points">
              <mxPoint x="510" y="30" />
              <mxPoint x="1290" y="30" />
            </Array>
          </mxGeometry>
        </mxCell>
        <mxCell id="1EAoDEHy4wld-5IjoN8q-3" value="" style="endArrow=classic;html=1;rounded=0;exitX=0.5;exitY=0;exitDx=0;exitDy=0;entryX=0.5;entryY=0;entryDx=0;entryDy=0;" edge="1" parent="1" source="z_xtqbVC0w5QypKN6tBm-1" target="z_xtqbVC0w5QypKN6tBm-16">
          <mxGeometry width="50" height="50" relative="1" as="geometry">
            <mxPoint x="130" y="70" as="sourcePoint" />
            <mxPoint x="900" y="70" as="targetPoint" />
            <Array as="points">
              <mxPoint x="130" y="10" />
              <mxPoint x="890" y="10" />
            </Array>
          </mxGeometry>
        </mxCell>
      </root>
    </mxGraphModel>
  </diagram>
</mxfile>
